{"title":"IDDARU (1997) telugu movie - teluguppls","uid":6381833,"size":740981982,"categoryP":"video","categoryS":"movies","magnet":"?xt=urn:btih:fd73ed9a720b435d0087fbf75ab63cb09c12ef5c&amp;dn=IDDARU+%281997%29+telugu+movie+-+teluguppls&amp;tr=udp%3A%2F%2Ftracker.openbittorrent.com%3A80&amp;tr=udp%3A%2F%2Fopen.demonii.com%3A1337&amp;tr=udp%3A%2F%2Ftracker.coppersurfer.tk%3A6969&amp;tr=udp%3A%2F%2Fexodus.desync.com%3A6969","seeders":3,"leechers":0,"uploader":"n1212","files":2,"time":1305056691,"description":"IDDARU (1997) TELUGU MOVIE TORRENT - TELUGUPPLS\n\n\nFOR SCREENSHOTS CLICK HERE\n &lt;a href=&quot;\nhttp://teluguppls.blogspot.com/2011/05/iddaru-1997-dvdrip-telugu-movie-torrent.html&quot; rel=&quot;nofollow&quot; target=&quot;_NEW&quot;&gt;\nhttp://teluguppls.blogspot.com/2011/05/iddaru-1997-dvdrip-telugu-movie-torrent.html&lt;/a&gt;\n\n\nGeneral\n\nFormat                           : MPEG-4\nFile size                        : 707 MiB\nDuration                         : 2h 45mn\nOverall bit rate                 : 597 Kbps\n\nVideo\n\nFormat                           : AVC\nFormat/Info                      : Advanced Video Codec\nFormat settings, ReFrames        : 5 frames\nDuration                         : 2h 45mn\nBit rate mode                    : Variable\nBit rate                         : 560 Kbps\nMaximum bit rate                 : 1 572 Kbps\nWidth                            : 512 pixels\nHeight                           : 388 pixels\nDisplay aspect ratio             : 4:3\nFrame rate mode                  : Constant\nFrame rate                       : 29.970 fps\nColor space                      : YUV\nChroma subsampling               : 4:2:0\nBit depth                        : 8 bits\nScan type                        : Progressive\nBits/(Pixel*Frame)               : 0.094\nStream size                      : 664 MiB (94%)\n\n\nAudio\n\nFormat                           : AAC\nFormat/Info                      : Advanced Audio Codec\nFormat profile                   : HE-AAC / LC\nCodec ID                         : 40\nDuration                         : 2h 45mn\nBit rate mode                    : Variable\nBit rate                         : 32.0 Kbps\nMaximum bit rate                 : 36.8 Kbps\nChannel(s)                       : 2 channels\nChannel positions                : Front: L R\nSampling rate                    : 48.0 KHz / 24.0 KHz\nCompression mode                 : Lossy\nStream size                      : 37.9 MiB (5%)\n\n\nPOST A COMMENT........................","torrent":{"xt":"urn:btih:fd73ed9a720b435d0087fbf75ab63cb09c12ef5c","amp;dn":"IDDARU+%281997%29+telugu+movie+-+teluguppls","amp;tr":["udp%3A%2F%2Ftracker.openbittorrent.com%3A80","udp%3A%2F%2Fopen.demonii.com%3A1337","udp%3A%2F%2Ftracker.coppersurfer.tk%3A6969","udp%3A%2F%2Fexodus.desync.com%3A6969"],"infoHash":"fd73ed9a720b435d0087fbf75ab63cb09c12ef5c","infoHashBuffer":{"type":"Buffer","data":[253,115,237,154,114,11,67,93,0,135,251,247,90,182,60,176,156,18,239,92]},"announce":[],"urlList":[]}}